<?xml version="1.0" standalone="no"?>
<!DOCTYPE svg PUBLIC "-//W3C//DTD SVG 20010904//EN"
 "http://www.w3.org/TR/2001/REC-SVG-20010904/DTD/svg10.dtd">
<svg version="1.0" xmlns="http://www.w3.org/2000/svg"
 width="872.000000pt" height="872.000000pt" viewBox="0 0 872.000000 872.000000"
 preserveAspectRatio="xMidYMid meet">
<metadata>
Created by potrace 1.11, written by Peter Selinger 2001-2013
</metadata>
<g transform="translate(0.000000,872.000000) scale(0.100000,-0.100000)"
fill="#000000" stroke="none">
<path d="M1307 6244 c-1 -1 -33 -5 -72 -8 -111 -10 -144 -16 -240 -43 -490
-139 -794 -504 -853 -1023 -15 -138 -5 -468 18 -592 6 -29 13 -66 16 -83 18
-105 65 -245 117 -350 124 -252 381 -435 660 -471 23 -3 53 -7 67 -10 57 -10
308 -3 405 11 17 2 53 7 80 10 127 16 418 97 498 139 l41 22 -1 97 c0 54 -3
100 -6 103 -3 4 -28 0 -54 -9 -52 -17 -126 -37 -158 -43 -11 -2 -42 -8 -70
-14 -188 -38 -481 -57 -585 -39 -192 34 -309 121 -395 294 -91 183 -127 380
-129 715 -1 280 8 407 40 573 38 200 120 307 281 367 126 47 309 47 623 -1 69
-10 136 -21 150 -24 14 -3 41 -8 60 -11 19 -4 59 -13 89 -20 30 -8 56 -13 57
-11 1 1 23 82 47 179 l44 177 -26 6 c-54 12 -95 18 -186 30 -27 4 -60 8 -72
10 -70 11 -437 27 -446 19z"/>
<path d="M3034 6234 c-102 -15 -153 -29 -239 -66 -229 -100 -402 -291 -454
-503 -13 -51 -16 -181 -6 -250 27 -185 141 -358 308 -468 102 -68 154 -93 332
-164 290 -115 416 -193 465 -289 21 -42 25 -63 25 -139 0 -49 -4 -112 -8 -139
-12 -73 -52 -152 -91 -175 -102 -63 -316 -73 -511 -23 -141 36 -299 96 -411
156 l-79 44 -57 -177 c-32 -97 -58 -183 -58 -191 0 -9 33 -30 84 -53 163 -73
275 -107 406 -122 25 -3 61 -8 80 -11 43 -7 254 -6 295 1 154 27 225 49 331
103 185 94 325 233 400 397 49 107 63 176 60 303 -3 133 -21 213 -71 317 -93
193 -250 308 -618 455 -233 92 -316 139 -381 210 -54 60 -69 102 -69 191 0
110 18 173 62 219 47 50 98 63 241 64 102 1 149 -2 255 -18 79 -12 244 -49
313 -71 42 -13 80 -21 84 -17 4 4 10 23 13 42 3 19 17 87 30 150 41 195 42
177 -11 185 -25 3 -54 8 -63 10 -10 2 -42 6 -72 10 -30 3 -65 8 -79 10 -140
21 -394 25 -506 9z"/>
<path d="M5103 6219 c-80 -15 -143 -63 -175 -137 -19 -43 -20 -68 -20 -491 0
-523 1 -566 18 -607 51 -123 205 -177 317 -111 50 29 86 72 107 126 11 26 13
141 13 535 0 480 -1 503 -20 546 -44 98 -144 156 -240 139z"/>
<path d="M6480 4954 l0 -1262 245 -1 245 -2 0 488 c1 374 4 492 13 504 29 38
85 106 126 154 24 27 45 52 47 53 1 2 63 -119 138 -270 113 -228 203 -397 269
-503 30 -49 148 -203 179 -235 104 -107 213 -170 338 -196 77 -16 275 -22 360
-10 69 10 154 28 162 35 10 8 14 148 5 157 -3 4 -25 8 -49 10 -70 5 -99 13
-172 52 -114 60 -273 228 -402 427 -21 33 -42 62 -46 63 -5 2 -8 7 -8 11 0 5
-24 48 -53 97 -30 49 -72 123 -94 164 -22 41 -50 92 -62 113 -12 21 -69 133
-127 248 l-106 210 48 57 c27 31 51 59 54 62 3 3 30 34 60 70 30 36 60 70 65
76 6 6 39 44 75 85 112 129 273 282 351 336 86 59 178 93 258 97 l56 2 3 81 3
80 -40 7 c-46 7 -292 1 -334 -8 -58 -13 -134 -49 -192 -91 -62 -44 -210 -192
-280 -280 -22 -27 -45 -54 -51 -60 -7 -5 -123 -149 -259 -320 -136 -170 -257
-321 -269 -335 -11 -14 -31 -38 -44 -54 l-22 -29 0 590 0 591 -245 -1 -245 0
0 -1263z"/>
<path d="M4472 5739 c-59 -11 -97 -37 -162 -110 -220 -247 -315 -498 -305
-809 7 -238 65 -417 196 -610 167 -244 418 -411 711 -470 139 -29 314 -31 428
-5 14 3 38 8 55 11 109 20 303 109 411 190 197 147 333 337 410 571 24 75 26
80 44 198 49 307 -73 689 -292 916 -106 110 -248 122 -346 30 -95 -89 -94
-245 3 -330 80 -69 155 -209 181 -332 26 -124 11 -279 -38 -404 -44 -113 -175
-260 -287 -323 -57 -31 -191 -86 -191 -77 0 2 -17 -1 -37 -6 -43 -10 -183 -12
-228 -4 -86 17 -224 70 -265 102 -8 6 -39 30 -68 53 -52 41 -134 141 -155 190
-6 14 -16 32 -22 40 -31 41 -58 158 -63 273 -3 77 -1 117 6 117 5 0 8 8 5 18
-7 27 43 168 83 233 18 31 61 85 95 120 74 79 98 127 99 198 0 143 -126 247
-268 220z"/>
<path d="M6045 3282 c-60 -13 -122 -95 -123 -164 -1 -58 -1 -58 -21 -58 -25 0
-38 -20 -20 -30 7 -5 16 -7 20 -4 17 10 22 -24 22 -142 0 -81 4 -124 11 -127
6 -2 27 -3 46 -3 l35 1 0 135 c0 100 3 135 13 136 6 1 23 2 36 3 28 1 45 40
18 42 -73 4 -67 -2 -66 65 1 89 6 97 54 92 36 -3 41 -1 47 20 3 12 4 25 1 27
-7 7 -53 12 -73 7z"/>
<path d="M8115 3279 l-30 -8 2 -228 c0 -125 2 -242 2 -258 1 -29 3 -31 46 -31
l45 0 0 122 c0 120 0 121 25 132 36 17 72 15 79 -4 3 -9 6 -69 6 -133 l0 -118
39 1 c22 1 43 4 47 8 3 4 6 63 6 132 0 146 -9 171 -68 182 -27 5 -50 1 -85
-14 l-49 -20 0 124 c0 137 2 133 -65 113z"/>
<path d="M4297 3221 l-25 -29 31 -32 30 -31 29 33 28 33 -30 28 c-16 15 -31
27 -33 27 -2 0 -15 -13 -30 -29z"/>
<path d="M6739 3219 l-21 -30 28 -30 29 -30 27 32 28 33 -27 28 c-15 15 -30
28 -34 28 -4 0 -17 -14 -30 -31z"/>
<path d="M8491 3219 l-23 -31 23 -24 c29 -31 40 -30 68 2 l23 26 -28 29 c-15
16 -31 29 -34 29 -3 0 -17 -14 -29 -31z"/>
<path d="M293 3225 c-64 -15 -116 -53 -146 -108 -32 -61 -32 -202 1 -269 35
-71 71 -92 162 -96 97 -4 164 15 168 47 3 21 1 22 -30 15 -18 -4 -59 -8 -92
-9 -98 -3 -135 47 -137 186 -2 165 39 201 199 170 46 -9 49 -7 54 38 2 17 -3
25 -17 27 -57 10 -115 9 -162 -1z"/>
<path d="M3353 3229 c-111 -23 -155 -141 -83 -221 9 -10 46 -31 82 -47 79 -36
98 -54 98 -91 0 -61 -57 -76 -152 -40 -29 11 -54 20 -55 20 -7 0 -21 -65 -16
-71 18 -15 80 -29 132 -29 135 1 214 116 153 224 -12 20 -42 40 -99 67 -66 31
-84 44 -89 65 -11 44 6 59 67 60 30 1 65 -3 78 -8 29 -10 41 3 41 45 0 21 -5
27 -22 28 -13 0 -41 2 -63 3 -22 1 -55 -1 -72 -5z"/>
<path d="M6286 2998 c1 -128 2 -236 3 -239 0 -3 19 -6 41 -5 47 1 48 4 48 102
0 67 12 114 31 114 4 0 24 -33 44 -74 49 -99 101 -146 161 -146 24 0 51 3 60
6 22 8 20 34 -2 34 -32 0 -88 62 -141 155 -28 49 -51 93 -51 98 0 14 79 105
111 128 16 11 37 21 47 22 10 0 19 9 19 19 1 14 -6 18 -33 18 -60 0 -92 -25
-188 -148 -27 -34 -51 -60 -54 -57 -3 3 -5 50 -5 105 l1 100 -47 0 -46 0 1
-232z"/>
<path d="M2288 3094 c-53 -39 -57 -49 -30 -63 16 -8 18 -23 16 -123 -2 -133 8
-158 59 -158 51 0 124 28 130 50 4 18 0 19 -41 17 l-47 -2 -5 55 c-3 30 -3 79
-2 108 l4 52 45 0 c40 0 44 2 41 22 -3 18 -10 22 -48 22 -41 1 -45 3 -45 26 0
36 -24 35 -77 -6z"/>
<path d="M4842 3095 c-56 -38 -62 -49 -35 -64 15 -8 17 -27 18 -131 1 -109 3
-124 20 -137 37 -27 172 7 172 43 0 12 -9 13 -44 8 -43 -6 -43 -6 -50 27 -4
19 -6 45 -6 59 0 14 1 49 2 78 l1 52 40 0 c28 0 43 5 47 16 8 22 -11 32 -52
27 -30 -3 -34 0 -40 27 -4 16 -10 30 -13 30 -4 0 -31 -16 -60 -35z"/>
<path d="M7859 3098 c-58 -42 -62 -50 -40 -68 17 -13 19 -28 19 -110 0 -134 0
-137 19 -155 31 -31 173 2 173 40 0 11 -8 14 -36 9 -57 -9 -64 4 -64 117 l0
99 45 0 c44 0 47 3 44 38 0 4 -20 6 -45 6 -42 -2 -44 -1 -44 27 0 38 -15 37
-71 -3z"/>
<path d="M610 3062 c-48 -23 -70 -63 -75 -134 -7 -110 38 -166 141 -174 106
-9 164 41 172 146 6 84 -16 133 -73 160 -49 24 -119 24 -165 2z m127 -58 c21
-33 24 -164 3 -188 -19 -24 -76 -20 -94 6 -19 26 -22 158 -6 189 17 30 75 26
97 -7z"/>
<path d="M933 3067 c-4 -7 -7 -242 -4 -298 1 -12 11 -16 46 -15 l45 1 0 121
c0 120 0 121 25 132 36 16 62 15 69 -4 3 -9 6 -68 6 -133 l0 -117 45 0 45 0 1
46 c1 25 0 77 0 117 -2 64 0 73 21 87 28 20 67 21 74 2 3 -8 6 -67 7 -132 l2
-118 42 -1 c23 0 44 4 46 10 6 18 1 249 -6 271 -8 23 -46 44 -81 44 -12 0 -42
-10 -67 -22 l-44 -23 -22 23 c-28 28 -71 29 -124 2 -37 -20 -40 -20 -47 -3 -7
19 -69 26 -79 10z"/>
<path d="M1540 3071 l-35 -6 -3 -264 -2 -264 42 7 c23 4 43 8 45 9 1 2 4 45 5
97 l3 95 58 6 c101 11 151 68 151 174 0 46 -6 71 -22 97 -33 54 -108 74 -162
44 -19 -11 -27 -11 -35 -2 -6 8 -24 10 -45 7z m136 -59 c21 -13 34 -51 34 -95
0 -44 -16 -106 -28 -108 -86 -17 -91 -12 -90 99 1 58 5 100 12 104 14 10 58
10 72 0z"/>
<path d="M1922 3072 l-43 -3 3 -141 c3 -133 4 -141 27 -159 30 -24 84 -24 139
1 40 18 42 18 42 1 0 -15 8 -18 42 -17 l43 2 0 157 0 157 -46 0 -46 0 0 -116
c0 -63 -4 -119 -10 -125 -5 -5 -24 -13 -41 -18 -53 -16 -60 0 -60 139 0 67 -2
122 -4 123 -1 1 -22 1 -46 -1z"/>
<path d="M2594 3070 c-58 -18 -92 -82 -88 -171 4 -108 54 -156 151 -146 64 7
145 50 137 72 -7 18 -16 19 -30 5 -6 -6 -33 -13 -61 -17 -46 -5 -54 -3 -77 20
-14 14 -26 37 -26 50 0 20 5 23 43 25 64 4 119 13 138 23 18 9 15 41 -9 85
-28 52 -107 76 -178 54z m82 -57 c7 -10 14 -28 14 -39 0 -19 -7 -23 -45 -26
-49 -3 -55 5 -35 56 11 31 46 35 66 9z"/>
<path d="M2898 3072 l-28 -3 0 -158 0 -157 38 0 c20 1 42 4 47 8 6 3 9 50 8
110 -2 121 9 144 63 133 31 -5 32 -5 36 35 3 38 2 40 -24 40 -17 0 -37 -10
-53 -27 -19 -22 -25 -24 -25 -11 0 22 -27 35 -62 30z"/>
<path d="M3676 3070 c-61 -19 -96 -76 -96 -154 0 -112 66 -174 174 -163 65 6
88 17 118 59 19 27 23 46 23 103 0 76 -15 111 -59 141 -29 19 -120 27 -160 14z
m113 -75 c17 -35 18 -144 1 -174 -11 -21 -62 -29 -86 -13 -19 12 -30 65 -29
129 2 76 15 95 64 91 29 -2 39 -9 50 -33z"/>
<path d="M4060 3073 c-70 -28 -103 -83 -103 -169 0 -69 25 -123 65 -140 67
-29 198 1 198 46 0 18 -3 19 -21 10 -33 -18 -107 -17 -126 3 -21 20 -30 129
-14 169 13 34 56 44 105 24 36 -15 37 -15 47 11 7 18 6 30 -1 37 -11 11 -127
19 -150 9z"/>
<path d="M4325 3070 l-40 -5 0 -155 0 -155 43 0 c30 -1 43 4 46 15 7 25 5 300
-2 303 -4 1 -25 0 -47 -3z"/>
<path d="M4529 3061 c-45 -24 -69 -75 -70 -148 -2 -115 49 -170 147 -160 60 6
137 43 142 69 3 15 -1 15 -44 2 -90 -27 -143 -9 -147 51 l-2 30 77 7 c95 9
122 21 112 51 -26 84 -57 111 -129 114 -35 1 -64 -4 -86 -16z m107 -67 c8 -20
14 -38 12 -39 -6 -7 -87 -9 -94 -3 -3 4 -1 23 6 42 9 28 17 36 36 36 19 0 29
-8 40 -36z"/>
<path d="M5038 3072 c-24 -5 -23 -29 2 -42 21 -11 45 -59 95 -192 l32 -86 -44
-56 c-50 -64 -118 -117 -139 -109 -9 3 -14 -2 -14 -15 0 -11 6 -22 13 -25 23
-9 77 2 101 20 51 39 227 312 247 387 13 44 16 112 7 122 -4 3 -20 3 -37 -1
-30 -6 -31 -8 -31 -63 0 -63 -13 -118 -34 -147 -12 -17 -15 -12 -36 51 -50
152 -73 174 -162 156z"/>
<path d="M5604 3065 c-17 -7 -42 -28 -55 -46 -20 -29 -24 -46 -24 -106 1 -82
18 -116 76 -146 45 -24 138 -19 177 9 83 61 83 217 -1 278 -34 25 -127 31
-173 11z m122 -60 c21 -32 25 -133 8 -175 -12 -28 -17 -31 -51 -28 -32 2 -40
8 -54 36 -17 37 -16 140 2 173 15 29 74 26 95 -6z"/>
<path d="M6760 3072 l-35 -3 2 -132 c1 -73 2 -144 2 -158 1 -24 4 -26 46 -25
l45 1 0 156 c0 171 2 167 -60 161z"/>
<path d="M6935 3072 c-19 -3 -20 -10 -19 -152 0 -83 4 -154 8 -158 4 -4 25 -7
47 -8 l39 0 0 121 c0 121 0 122 25 133 36 16 62 15 69 -4 3 -9 6 -68 6 -133
l0 -118 45 1 c25 1 45 3 46 6 0 3 1 57 1 120 1 106 3 116 22 127 29 17 65 16
72 -2 3 -8 7 -67 7 -132 l2 -118 45 0 45 0 0 137 c-1 119 -3 139 -19 157 -29
32 -76 36 -131 12 -47 -21 -47 -21 -72 -1 -32 25 -73 25 -122 0 -31 -15 -40
-17 -44 -6 -6 14 -40 23 -72 18z"/>
<path d="M7548 3062 c-35 -11 -48 -21 -48 -34 0 -16 5 -18 38 -12 20 4 45 8
54 10 24 4 48 -22 48 -52 0 -16 -6 -25 -17 -25 -10 -1 -25 -3 -33 -4 -8 -1
-28 -3 -43 -4 -46 -2 -77 -42 -77 -99 0 -84 61 -115 146 -75 34 17 36 17 45 0
12 -21 60 -22 99 -2 35 18 42 50 10 42 -25 -6 -42 22 -40 66 5 87 -1 165 -14
182 -18 25 -102 28 -168 7z m90 -203 c-3 -42 -5 -44 -35 -47 -18 -2 -33 0 -34
5 -8 79 -5 89 31 95 35 6 42 -3 38 -53z"/>
<path d="M8515 3072 l-40 -3 2 -142 c0 -78 2 -149 2 -157 1 -11 13 -15 46 -16
l45 -1 0 158 c0 87 -3 159 -7 161 -5 2 -26 2 -48 0z"/>
</g>
</svg>
